<svg xmlns="http://www.w3.org/2000/svg" width="103.492" height="25.839" viewBox="0 0 103.492 25.839">
  <g id="finca-logo.svg" transform="translate(-0.811 -0.78)">
    <g id="finca-logo" transform="translate(0.809 0.661)">
      <rect id="Rectangle" width="4.545" height="25.816" transform="translate(22.152 0.118)" fill="#fff"/>
      <g id="Group">
        <path id="Shape" d="M82.186,21.527a2.407,2.407,0,0,1-2.645-2.456c0-1.25.787-2.251,2.653-2.763l9.728-2.674v7.892ZM96.539,6.752c0-3.292-2.09-6.634-7.177-6.634H79.775c-1.558,0-2.1.642-2.242,1.97-.06.544-.26,2.437-.26,2.437H88.589c2.4,0,3.334,1.127,3.334,2.939v1.5l-9.567,2.6c-5.116,1.405-7.58,3.627-7.58,7.515A6.784,6.784,0,0,0,81.9,25.935h14.64Z" fill="#fff"/>
        <path id="Path" d="M63.172,7.464c0-1.812.937-2.94,3.334-2.94h7.665s-.2-1.893-.261-2.437C73.767.762,73.225.118,71.668.118H65.733c-5.088,0-7.176,3.342-7.176,6.635V25.935h4.615Z" fill="#fff"/>
        <path id="Path-2" data-name="Path" d="M45.373,4.524c2.4,0,3.334,1.128,3.334,2.94V25.934h4.616V6.752c0-3.291-2.09-6.634-7.177-6.634H32.082V25.934h4.546V4.524Z" fill="#fff"/>
        <path id="Path-3" data-name="Path" d="M15.93,12.36c-.142-1.328-.685-1.97-2.242-1.97H4.617V7.464c0-1.812.936-2.94,3.332-2.94H18.865s-.2-1.893-.26-2.435C18.461.761,17.919.12,16.362.12H7.18C2.09.12,0,3.46,0,6.752V25.935H4.617V14.794H16.191s-.2-1.892-.261-2.434" fill="#fff"/>
        <path id="Shape-2" data-name="Shape" d="M101.439,21.842a2.116,2.116,0,0,1,1.012.267,1.9,1.9,0,0,1,.769.761,2.065,2.065,0,0,1,0,2.054,1.9,1.9,0,0,1-.759.762,2.065,2.065,0,0,1-2.049,0,1.915,1.915,0,0,1-.762-.762,2.058,2.058,0,0,1,0-2.054,1.892,1.892,0,0,1,.772-.761,2.1,2.1,0,0,1,1.01-.267m0,.341a1.761,1.761,0,0,0-.844.222,1.609,1.609,0,0,0-.642.635,1.744,1.744,0,0,0-.231.861,1.724,1.724,0,0,0,.228.852,1.615,1.615,0,0,0,.635.636,1.717,1.717,0,0,0,1.708,0,1.6,1.6,0,0,0,.636-.636,1.719,1.719,0,0,0,0-1.713,1.6,1.6,0,0,0-.642-.635,1.767,1.767,0,0,0-.843-.222m-.9,2.855V22.825h.759a1.845,1.845,0,0,1,.564.061.537.537,0,0,1,.278.215.561.561,0,0,1,.1.324.588.588,0,0,1-.172.423.687.687,0,0,1-.46.2.557.557,0,0,1,.189.118,2.542,2.542,0,0,1,.328.439l.268.433h-.434l-.2-.349a1.758,1.758,0,0,0-.374-.516.456.456,0,0,0-.285-.076h-.21v.94Zm.356-1.246h.432a.7.7,0,0,0,.426-.094.316.316,0,0,0,.057-.42.3.3,0,0,0-.152-.115,1.086,1.086,0,0,0-.358-.039h-.406Z" fill="#fff"/>
      </g>
    </g>
  </g>
</svg>
