<?xml version="1.0" encoding="UTF-8"?>
<svg width="23px" height="24px" viewBox="0 0 23 24" version="1.1" xmlns="http://www.w3.org/2000/svg" xmlns:xlink="http://www.w3.org/1999/xlink">
    <title>linkedin</title>
    <g id="Page-1" stroke="none" stroke-width="1" fill="none" fill-rule="evenodd">
        <g id="linkedin" fill="#FFFFFF" fill-rule="nonzero">
            <path d="M21.3412247,0.298889 L1.65877532,0.298889 C0.742614746,0.298889 0,1.04150375 0,1.95766432 L0,21.6401137 C0,22.5562743 0.742614746,23.298889 1.65877532,23.298889 L21.3412247,23.298889 C22.2573853,23.298889 23,22.5562743 23,21.6401137 L23,1.95766432 C23,1.04150375 22.2573853,0.298889 21.3412247,0.298889 Z M8.15823364,17.6836546 L5.35746003,17.6836546 L5.35746003,9.25746901 L8.15823364,9.25746901 L8.15823364,17.6836546 Z M6.75793457,8.1068724 L6.73968506,8.1068724 C5.79983521,8.1068724 5.19198608,7.4598921 5.19198608,6.65129835 C5.19198608,5.82445509 5.81843569,5.19537338 6.77653501,5.19537338 C7.73463442,5.19537338 8.32423403,5.82445509 8.34248354,6.65129835 C8.34248354,7.4598921 7.73463442,8.1068724 6.75793457,8.1068724 Z M18.2572327,17.6836546 L15.45681,17.6836546 L15.45681,13.1758498 C15.45681,12.0429762 15.0512848,11.2703551 14.0379105,11.2703551 C13.2642365,11.2703551 12.8034363,11.791519 12.6009369,12.2946089 C12.526886,12.4746474 12.5088119,12.72628 12.5088119,12.9780882 L12.5088119,17.6836546 L9.70821379,17.6836546 C9.70821379,17.6836546 9.74488833,10.0479888 9.70821379,9.25746901 L12.5088119,9.25746901 L12.5088119,10.4505308 C12.8809967,9.87637313 13.5469284,9.0597075 15.0328598,9.0597075 C16.875534,9.0597075 18.2572327,10.2639998 18.2572327,12.8520964 L18.2572327,17.6836546 Z" id="Shape"></path>
        </g>
    </g>
</svg>