<svg xmlns="http://www.w3.org/2000/svg" width="62.322" height="25.839" viewBox="0 0 62.322 25.839">
  <g id="sipc-logo.svg" transform="translate(-0.531 -2.316)">
    <g id="sipc-logo" transform="translate(0.531 2.316)">
      <g id="g10">
        <g id="g12" transform="translate(0 0)">
          <path id="path14" d="M19.118-26.407a.877.877,0,0,0-.451-.106,6.222,6.222,0,0,0-1.035.5,4.5,4.5,0,0,0-1.406,2.971,5.1,5.1,0,0,0,.292,1.565A4.618,4.618,0,0,0,17.633-19.3l.159.053c.026-.053-.027-.132-.027-.212a5.549,5.549,0,0,1-.955-3.263c.159-.265.5-.5.424-.849h-.053c-.159.265-.292.584-.531.716A3.624,3.624,0,0,0,17-24.178c.08-.132.212.053.265.079l.08-.106c.053-.026.133-.053.159,0a2.422,2.422,0,0,1-.027.982.84.84,0,0,0,.212-.319c.133-.291-.027-.584,0-.875.186-.16.239-.4.371-.584.478-.186.186.5.425.637.106-.159.133-.345.239-.5-.159-.133-.292-.345-.451-.451-.292-.212-.372.265-.61.291-.345.08-.318.451-.5.637-.133-.107-.106-.292-.079-.451.026-.239.292-.265.451-.4.265-.107.318-.4.425-.61a.252.252,0,0,1,.292.106c.4-.053.292.425.584.557.345.026.451.318.743.424.212-.265-.239-.371-.265-.637-.212-.318.106-.742-.186-1.008Zm-.159,1.591c-.133.08-.212.292-.292.451.027.053.08.026.133.026.212-.079.186-.318.159-.478Zm.557.213c-.5-.133-.372.5-.584.743-.08.053-.159.133-.239.053-.053-.107,0-.213-.027-.265-.027.132-.159.132-.239.185.027.106.159.053.212.106.239.478-.106.955-.345,1.353l-.026.345c.159.61.531,1.114.716,1.671-.026-.5-.372-.876-.372-1.38-.106-.53.425-.637.557-1.034.053-.186-.053-.5.212-.531a1.33,1.33,0,0,0,.027-.451c-.133.159-.451.265-.318.557-.079.318-.132.849-.557.9-.106-.027-.08-.133-.08-.213a.862.862,0,0,0,.345-.822c.027-.4.531-.584.478-1.034.027-.133.186-.133.239-.186ZM18.11-23.568c.026-.159.053-.372-.106-.451.08.345-.133.584-.186.849a.511.511,0,0,0,.292-.4Zm.292.291c.027-.026.053-.132-.026-.132a2.36,2.36,0,0,1-.424.584c-.133.186-.08.478-.159.69.053.053.029.134.106.212a1.837,1.837,0,0,1,.265.451c.053.478.4.822.451,1.3.027.186-.027.4.106.557a.983.983,0,0,0,.053-.557,5,5,0,0,0-.186-.584,2.193,2.193,0,0,0-.41-.989c-.179-.218-.12-.364-.173-.6.08-.318.292-.61.4-.929Zm-.981,1.512c-.106-.318.08-.769-.239-.981a1.1,1.1,0,0,0-.106.663,5.585,5.585,0,0,0,.69,2.1c.106.159.133.424.292.557A.616.616,0,0,0,18-20.04a5.1,5.1,0,0,1-.584-1.725Zm.292-.291c-.018-.166.027-.291-.106-.345a2.02,2.02,0,0,0,.027,1.034,13.17,13.17,0,0,0,.69,1.618,1.638,1.638,0,0,1,.026.717,1.777,1.777,0,0,0,.159-.319,4.623,4.623,0,0,0-.318-1.326,5.478,5.478,0,0,1-.478-1.38Zm2.228,0a1.546,1.546,0,0,0-.265-.318,1.586,1.586,0,0,0-.239,1.327c.239-.053.133-.345.239-.478.027-.239.318-.292.265-.53Zm-.69,1.008c-.345-.371-.106-.875,0-1.247L18.88-22a1.1,1.1,0,0,0,.318,1.088c.08,0,.053-.08.053-.133Zm1.326.159c-.079-.318-.026-.769-.4-.849-.133.159-.326.168-.273.38.061.055.114.389.3.309.159.027.186.186.239.292.079.053.132-.053.132-.133Zm-.5,1.274c-.265.026-.239-.266-.345-.425a1.3,1.3,0,0,0,0,.637c.08.027.133-.08.239-.08.186.053.053.292.08.4a.264.264,0,0,0,.106-.133c.371-.159.186.345.371.478.159-.026.08-.239.212-.318.053-.053.159-.027.159-.107-.026-.159-.133-.371-.318-.239-.212,0-.265-.265-.5-.212Zm-.186,1.088c-.079-.133-.159-.345-.345-.424-.079.079-.185.132-.212.265.08.053.08.186.212.212.106,0,.292.106.345-.053Zm.861-1.381c.034-.051-.109-.519-.054-.574a.231.231,0,0,0,.039.063s-.025-.062-.039-.063c-.085-.163-.292.152-.507.019-.049-.1-.19-.012-.284.006a.286.286,0,0,0,.041.229l.027.051.149-.084c.1-.093.157,0,.157.084,0,.168-.054.18.051.286a2.414,2.414,0,0,0,.219-.236s.132.324.2.219Zm5.321-5.039-.477-.69a3.474,3.474,0,0,0-1.406-1.167c-.2-.078-.469-.241-.717,0-.476.464-.106.982-.265,1.459a1,1,0,0,1-.9.557c-.186-.106-.318-.292-.557-.239-.159.186-.451-.026-.557.239a.243.243,0,0,1-.292-.053c-.133-.132-.212.08-.292.133-.212.186-.477-.133-.69.08-.4.478-.186,1.273-.053,1.857.133.477.584.769.955,1.061.08.133-.106.213-.053.4.08.318.186.716.584.743-.079-.424-.239-1.035.16-1.353.08-.027.132-.053.185.026.027.239-.212.424-.159.69.053.292,0,.716.4.743.079-.106.053-.239.159-.318.106-.027.159.026.212.106.106.106.133-.053.186-.133.053-.026.159-.053.212.027a.178.178,0,0,0,.292-.053c-.106-.5-.239-1.009-.8-1.167-.159-.053-.053-.265.027-.292-.186-.212-.292.159-.477,0-.08-.185.212-.185.239-.345.186-.08.371.159.477-.106.08-.027.106.053.106.106a.45.45,0,0,1-.239.372c.106.132.292.106.371.265.265.08.318.424.5.61-.027.08,0,.186.08.186l.132-.318c.159-.186.133-.451.345-.557.053-.026.08.08.106.106l-.292.716c0,.053-.053.159.027.186.053-.186.239-.345.186-.557a.68.68,0,0,0,.213-.5.894.894,0,0,1-.557-.557c-.053-.186-.027-.4-.133-.557a.666.666,0,0,1-.5-.133c-.133-.185-.265-.478-.557-.5a.078.078,0,0,1,.027-.133,1.874,1.874,0,0,0,.822-.265,1.707,1.707,0,0,0,.425-1.512c-.027-.345.371-.133.451-.372a.181.181,0,0,1,.265.053c.159.5.928.239,1.141.743.026.159-.212.08-.265.106.053.186.292.292.265.53a.232.232,0,0,1-.239.133,2.193,2.193,0,0,1-.53-.849h-.08c-.106.345.265.53.4.822l-.053.106c-.106.053-.212-.026-.292-.08-.159-.318-.53-.584-.4-.982a.168.168,0,0,0-.159-.132c-.133,0-.186.106-.159.239.266.4.345.9.8,1.14.133.107.08.318.027.424a.74.74,0,0,0,.292.69c.053,0,.133.026.106-.08a1.359,1.359,0,0,1-.212-.849c0-.133.159-.265.239-.212a2.064,2.064,0,0,0,.106.9.08.08,0,0,0,.133.053,1.194,1.194,0,0,1-.053-.743c.08-.053.159-.159.265-.133a1.807,1.807,0,0,0-.106.769.4.4,0,0,0,.319.318c.291-.318-.186-.663,0-1.088.079-.08.026-.239.185-.292.08,0,.106.08.106.16a.912.912,0,0,0,0,.9c.159.106.186.477.4.318a2.687,2.687,0,0,0-.4-1.751Zm-1.7.849V-24.2l-.5-.5a.8.8,0,0,0,.5.61Zm-.345.212-.292-.265c0-.053-.08-.186-.133-.106-.079.186.159.292.265.425.08.053.133,0,.159-.053Zm-.319.265c-.212-.08-.239-.318-.424-.4a.231.231,0,0,0,.106.239c.106.106.212.318.345.318a.1.1,0,0,0-.027-.159Zm-.345.186c-.159-.132-.265-.424-.478-.345.027.239.292.266.4.4.053.026.106-.026.08-.053Zm1.486.557a1.918,1.918,0,0,1-.477-.849.46.46,0,0,0,.027.451c.027.239.265.292.451.4Zm-.557.026-.133-.212c-.026.106.053.239.133.212Zm.716,1.751a9.589,9.589,0,0,0,.424-1.963l-.159.186c-.4.5-.345,1.22-.557,1.83a3.073,3.073,0,0,1-.743,1.3c-.027.08-.133.265.027.292.4-.5.636-1.088,1.008-1.644Zm-.849-1.38a3.628,3.628,0,0,1-.4-.557l-.027.107A.513.513,0,0,0,24-22.48c.053.026.132.053.159,0Zm2.308-.159a.552.552,0,0,0-.371-.318,4.377,4.377,0,0,1-.345,1.671,8.382,8.382,0,0,1-1.167,2.2l-.026.133c.265-.08.371-.319.61-.451a7.2,7.2,0,0,0,1.3-3.236Zm-.689.424c.053-.159.106-.451-.053-.53a2.439,2.439,0,0,0-.345,1.247l-.212.557c-.265.266-.318.637-.557.929-.08.132-.212.159-.239.291-.053.159-.212.319-.186.451.08-.026.026.053.08.08.159-.027.159-.212.292-.239a8.428,8.428,0,0,0,1.22-2.786Zm-1.061-.265c-.239.106-.265.451-.372.689-.026.346.08.8-.186,1.035v-.981l-.053-.027c-.159.213-.133.5-.345.717a1.122,1.122,0,0,0,.08,1.114.936.936,0,0,0,.371-.531,1.615,1.615,0,0,0,.345-.822,2.521,2.521,0,0,0,.159-1.194Zm-1.38,2.334c-.053-.133-.186-.477-.371-.212-.345.132-.743.159-1.088.291a.641.641,0,0,0,.265.5c0,.08.027.106.106.106.186,0,.133-.238.186-.345.186-.212.186.239.424.159.053-.159-.053-.4.159-.478.106.053.133.212.212.266.106-.053.08-.186.106-.292Zm.371.876c-.08-.106-.08-.265-.212-.265-.159.265-.477-.027-.61.239-.159.186-.584.186-.53.451h.53c.106.053.239.08.292-.053.106-.159.212.053.345,0a2.432,2.432,0,0,1,.185-.371Zm-.345.849c-.239.08-.371-.159-.584-.186a.252.252,0,0,0-.053.186c-.026.133-.6.332-.547.438.292-.08,1.1-.173,1.289-.385l-.106-.053ZM20.35-26.77s.44-.072.519.124c.353.882-.8.955-.769,1.645.212.027.5.106.637-.132l.371.132c.186-.026.213-.371.451-.238a.333.333,0,0,1,.345-.053c.133-.053.106-.239.053-.345a2.619,2.619,0,0,1-.69.186c-.053-.026-.186-.133-.106-.213.292.107.292-.345.61-.185a.452.452,0,0,0,.186-.478c-.047-.45-.13-.83-.653-.942a.2.2,0,0,0-.157.026c0,.011-.016.049.037.064a.078.078,0,0,1,.024.144.289.289,0,0,1-.329-.035.154.154,0,0,0-.134-.046.4.4,0,0,0-.4.347Zm-1.512,8.493c-.021-.081.053-.2.331-.517a2.889,2.889,0,0,0,.435-1.423,1.716,1.716,0,0,1,.369-.788,1.3,1.3,0,0,0-.729.861c-.176.528-.332,1.564-.791,1.605a.249.249,0,0,0-.085.02,1.243,1.243,0,0,1-.66-.353,2.083,2.083,0,0,0-.2-.186,6.55,6.55,0,0,1-1.6-4.007c.239-1.513.853-3.177,2.434-3.686a1.4,1.4,0,0,1,.949-.023c.39.278.334.873.358,1.289a.661.661,0,0,0,.1.082,3.821,3.821,0,0,0,.879-.93c-.006-.086-.116-.181-.215-.206-.079,0-.162.04-.243.047s-.178-.027-.178-.178a.732.732,0,0,1,.323-.6c.458-.058.759-.467,1.254-.192a1.079,1.079,0,0,1,.624.572,7.069,7.069,0,0,1,.16,1.649c.022.088.084.111.186.111.369-.112.385-.427.365-.794-.018-.326-.083-.762.2-1a1,1,0,0,1,1.118-.268,4.763,4.763,0,0,1,1.839,1.652,4.634,4.634,0,0,1,.774,1.736,6.3,6.3,0,0,1-.612,3.251,4.6,4.6,0,0,1-1.5,1.975.7.7,0,0,1-.532.054,1.247,1.247,0,0,0-.306-.23c0,.061.223.282.238.327a.392.392,0,0,1,.08.317l-.061.061a.2.2,0,0,1-.192.039,1.224,1.224,0,0,0-.218.007,9.305,9.305,0,0,0-1.167.171,4.8,4.8,0,0,0-.845.158c-.146,0-.165-.16-.114-.247a.388.388,0,0,1,.241-.3l.081-.048a.3.3,0,0,0,.155-.2,2.958,2.958,0,0,0-.394-1.254s-.274-.847-.693-.646a1.228,1.228,0,0,0,.048.488,2.759,2.759,0,0,0,.243,1.224c0,.05.031.332-.029.392a1.366,1.366,0,0,1-.461.137c-.06.009-.132.013-.525.055-.771.173-1.452.031-1.44-.2Zm3.225-5.265c-.132.265-.477,0-.663.213a.236.236,0,0,1-.265-.107v-.106a.582.582,0,0,0,.425-.133c.106-.026.239.133.371,0,.079-.053.053-.186.159-.239.159.08.027.266-.027.372Zm.9,1.22c-.026.212.345.159.239.371-.159.08-.265-.079-.345-.186a.848.848,0,0,1-.079-.557c.292-.027.079.238.186.371Zm.61.026c0,.053.08.159-.027.186a.4.4,0,0,1-.4-.133.82.82,0,0,1-.106-.822c.053-.08.133,0,.159.053.106.186-.053.451.133.61l.239.106Zm-1.167-.716c-.053.08-.106.212-.239.186-.451-.133-.4.53-.849.451-.159-.053-.425.08-.478-.186.053-.132.292-.053.4-.132a.951.951,0,0,0,.266.053c.132-.106-.053-.239.08-.318.159.08.292-.08.4-.159a.3.3,0,0,0,.4-.132c.079,0,.053.159.027.238h0" transform="translate(-1 27.56)" fill="#fff"/>
          <path id="path16" d="M14.571-26.128V-18.1c-.137.137-.137.035-.165-.148a7.343,7.343,0,0,0-2.164-4.965c-4.15-3.732-9.222-2.108-8.2,2.472,1.3,5.822,10.445,2.627,11.643,10.2C16.951-2.531,9.629-.011,3.807-3.032c0,0-1.5-.941-2.1-.7-.257.1-.426.63-.466,1.2-.02.833-.251.583-.238.511,0-.346,0-8.569,0-8.569.006-.156.134-.112.134-.06C1.288-1.151,11.6.062,11.4-5.458,11.159-11.984,1.05-10.292.121-16.986c-1.142-8.228,7.121-10.539,11.933-6.982.952.7,1.837-.378,1.989-.6.325-.473.219-.943.347-1.564.05-.246.181-.167.181,0h0" transform="translate(-0.013 27.481)" fill="#fff"/>
          <path id="path18" d="M64.752-18.007c.051.595-.27.442-.27.442.78-6.15-11.557-13.37-12.354,2.385-.7,13.928,8.96,16.674,12.745,7.162.038-.132.278-.845.288-.906.044-.251.082.038.044.319C63.066,3.58,42.546-.474,47.251-18.262c1.118-4.223,6.6-8.29,10.987-7.074,2.616.724,2.29,1.107,3.872,1.943,1.775.938,2.232-1.239,2.452-2.345.2-.111.188.268.188.268v7.463h0" transform="translate(-2.901 27.448)" fill="#fff"/>
          <path id="path20" d="M39.5-22.662a4.564,4.564,0,0,0-4.234-2.17c-.242-.01-.229.131-.229.131V-13.39a.227.227,0,0,0,.229.241,4.939,4.939,0,0,0,4.636-2.76,7.075,7.075,0,0,0-.4-6.753Zm5.663,1.955c.49,2.846-.1,5.124-1.537,6.406-2.5,2.021-5.255,1.41-8.244,1.528-.378-.023-.345.435-.345.435V-1.954l-6.083,0,0-22.746c.036-.445-.826-.321-1.37-.348-.264-.035-.134-.23-.01-.251,2.359.051,9.458-.215,13.429.6a4.906,4.906,0,0,1,4.164,3.992h0" transform="translate(-1.714 27.42)" fill="#fff"/>
          <path id="path22" d="M25.291-16.138V-1.4c-.862.008-6.229,0-6.229,0l0-14.142s.028-.525-.318-.539c-.719-.029-1.688-.107-1.688-.107-.123-.008-.25-.17,0-.188h7.9c.353-.01.332.236.332.236h0" transform="translate(-1.062 26.866)" fill="#fff"/>
        </g>
      </g>
    </g>
  </g>
</svg>
